<?xml version="1.0" encoding="utf-8"?>
<!-- Generator: Adobe Illustrator 16.0.0, SVG Export Plug-In . SVG Version: 6.00 Build 0)  -->
<!DOCTYPE svg PUBLIC "-//W3C//DTD SVG 1.1//EN" "http://www.w3.org/Graphics/SVG/1.1/DTD/svg11.dtd">
<svg version="1.1" id="_x2014_ÎÓÈ_x5F_1" xmlns="http://www.w3.org/2000/svg" xmlns:xlink="http://www.w3.org/1999/xlink"
	 x="0px" y="0px" width="426.043px" height="444.044px" viewBox="0 0 426.043 444.044" enable-background="new 0 0 426.043 444.044"
	 xml:space="preserve">
<g>
	<g>
		<path fill="#003399" d="M373.453,320.349c0,0.95-0.828,1.721-1.848,1.721H34.86c-1.021,0-1.848-0.771-1.848-1.721v-13.773
			c0-0.95,0.828-1.722,1.848-1.722h336.745c1.02,0,1.848,0.771,1.848,1.722V320.349z"/>
		<path fill="#003399" d="M410.316,354.554l-33.25,17.197l-5.62,2.906l-33.25,17.198c-1.745,0.902-3.334-0.032-3.354-2.73
			c0,0-0.165-2.271-0.365-5.038l-0.052,0.027l-0.651-9.792c-0.001-0.011-0.002-0.027-0.002-0.036l-2.276-30.651
			c-0.05-0.982-0.092-1.89,1.347-2.634l38.688-20.01c2.204-1.141,2.674-0.166,4.141,0.917l22.864,18.88
			c0.007,0.006,0.02,0.018,0.028,0.024l7.613,6.19l-0.051,0.026c2.144,1.762,3.901,3.208,3.901,3.208
			C412.217,351.814,412.061,353.651,410.316,354.554z"/>
		<path fill="#003399" d="M123.591,72.759c0,0,11.137-25.546,40.69-34.884c34.64-10.945,33.151,92.128,35.106,99.027
			C201.348,143.803,142.564,121.081,123.591,72.759z"/>
		<path fill="#003399" d="M51.75,96.239c-2.108-6.529-11.73-18.042-23.019-29.332c-4.984-4.983-6.23-12.869-2.899-18.343
			c2.827-4.645,8.17-6.256,14.287-4.31C59.092,50.29,56.864,88.916,56.76,90.557l-2.887-0.182c0.774,1.507,1.395,2.943,1.826,4.277
			L51.75,96.239z M35.232,48.608c-2.204,0-3.924,0.895-4.988,2.642c-1.835,3.015-1.537,8.33,2.139,12.005
			c6.841,6.842,14.557,15.68,19.352,23.376c0.153-11.773-1.902-33.867-13.182-37.456C37.356,48.796,36.244,48.608,35.232,48.608z"/>
		<g>
			<path fill="#003399" d="M132.373,316.446H93.411h-6.587H47.861c-2.044,0-3.067,1.56-1.796,3.967c0,0,0.934,2.091,2.072,4.642
				l-0.061-0.001l2.027,4.469c7.647-4.484,16.55-7.057,26.055-7.057c19.472,0,36.421,10.789,45.202,26.715l6.703-15.098
				c0.003-0.007,0.01-0.023,0.015-0.032l4.081-8.997l-0.061,0.001c1.138-2.551,2.072-4.642,2.072-4.642
				C135.439,318.006,134.417,316.446,132.373,316.446z"/>
			<path fill="#003399" d="M76.158,345.922c15.511,0,28.131,12.619,28.131,28.13c0,15.513-12.62,28.132-28.131,28.132
				c-15.512,0-28.131-12.619-28.131-28.132C48.027,358.541,60.646,345.922,76.158,345.922 M76.158,325.263
				c-26.946,0-48.79,21.844-48.79,48.789c0,26.947,21.844,48.79,48.79,48.79c26.945,0,48.79-21.843,48.79-48.79
				C124.948,347.106,103.103,325.263,76.158,325.263L76.158,325.263z"/>
			<path fill="#003399" d="M84.702,358.171H67.613l-8.545,14.801l8.545,14.801h17.089l8.545-14.801L84.702,358.171z M76.158,381.952
				c-4.959,0-8.979-4.021-8.979-8.98c0-4.958,4.02-8.979,8.979-8.979c4.958,0,8.979,4.021,8.979,8.979
				C85.137,377.931,81.116,381.952,76.158,381.952z"/>
		</g>
		<g>
			<path fill="#003399" d="M369.359,310.177l-81.985,4.835c0,0,19.552,6.059,18.413,8.608h0.061l-4.079,8.996
				c-0.005,0.01-0.013,0.025-0.017,0.034l-0.505,1.139l0,0c28.009-9.191,30.574,14.54,30.574,14.54
				c6.378-0.296,45.993-18.771,45.993-18.771L369.359,310.177z"/>
			<polygon fill="#003399" points="301.245,333.792 301.247,333.789 301.244,333.789 			"/>
			<path fill="#003399" d="M306.064,315.012h-18.69h-20.273h-6.587h-38.963c-2.044,0-3.066,1.56-1.796,3.966
				c0,0,0.935,2.093,2.072,4.643h-0.061l4.08,8.996c0.005,0.01,0.011,0.025,0.015,0.034l5.86,13.196
				c9.435-12.453,24.383-20.499,41.21-20.499c4.382,0,8.633,0.554,12.694,1.579c5.629,1.424,10.893,3.764,15.616,6.863
				c0,0,0.003-0.001,0.005-0.001l0.505-1.139c0.004-0.009,0.012-0.024,0.017-0.034l4.079-8.996h-0.061
				c1.139-2.55,2.072-4.643,2.072-4.643C309.129,316.571,308.106,315.012,306.064,315.012z"/>
		</g>
		<g>
			<path fill="#003399" d="M272.909,348.896c15.512,0,28.131,12.619,28.131,28.131c0,15.511-12.619,28.131-28.131,28.131
				c-15.511,0-28.131-12.62-28.131-28.131C244.778,361.515,257.398,348.896,272.909,348.896 M272.909,328.236
				c-26.945,0-48.79,21.845-48.79,48.79s21.845,48.789,48.79,48.789c26.944,0,48.789-21.844,48.789-48.789
				S299.854,328.236,272.909,328.236L272.909,328.236z"/>
			<path fill="#003399" d="M281.454,361.146h-17.09l-8.545,14.799l8.545,14.801h17.09l8.545-14.801L281.454,361.146z
				 M272.909,384.926c-4.959,0-8.979-4.021-8.979-8.98c0-4.958,4.021-8.979,8.979-8.979c4.958,0,8.979,4.021,8.979,8.979
				C281.888,380.905,277.867,384.926,272.909,384.926z"/>
		</g>
		<g>
			<path fill="#003399" d="M228.689,168.614l-0.998-0.842c-1.984-1.673-4.962-1.412-6.645,0.585l-7.975,9.464
				c-0.002,0-0.006,0-0.009,0c-4.437-0.169-8.169,3.29-8.338,7.726c-0.168,4.436,3.29,8.168,7.727,8.337
				c4.435,0.169,8.167-3.29,8.336-7.725c0.012-0.288,0.006-0.571-0.013-0.851l8.466-10.047
				C230.923,173.264,230.677,170.288,228.689,168.614z"/>
		</g>
		<g>
			<path fill="#003399" d="M248.129,187.97l-1.022-0.811c-2.036-1.613-5.003-1.26-6.624,0.787l-7.683,9.703
				c-0.003,0-0.007-0.001-0.01-0.001c-4.438-0.034-8.064,3.537-8.098,7.976c-0.035,4.439,3.536,8.065,7.975,8.099
				c4.439,0.034,8.064-3.537,8.098-7.976c0.003-0.287-0.011-0.571-0.039-0.85l8.156-10.299
				C250.503,192.549,250.165,189.582,248.129,187.97z"/>
		</g>
		<g>
			<path fill="#003399" d="M271.059,204.552l-1.043-0.785c-2.076-1.56-5.034-1.13-6.601,0.958l-7.432,9.896c-0.004,0-0.007,0-0.01,0
				c-4.438,0.08-7.97,3.743-7.891,8.182c0.08,4.439,3.745,7.971,8.183,7.891s7.97-3.744,7.89-8.181
				c-0.006-0.288-0.027-0.571-0.062-0.849l7.889-10.506C273.549,209.068,273.137,206.11,271.059,204.552z"/>
		</g>
		<path fill="#003399" d="M330.891,231.724c-20.831,0-40.962-7.065-58.912-17.299l-5.071,6.798c0.056,0.405,0.09,0.816,0.099,1.234
			c0.127,5.939-4.585,10.855-10.524,10.982c-5.937,0.126-10.854-4.586-10.98-10.525c-0.12-5.631,4.111-10.341,9.614-10.92
			l4.147-5.561c-3.798-2.61-7.465-5.334-10.986-8.126l-4.865,6.241c0.046,0.405,0.073,0.817,0.073,1.235
			c0,5.941-4.816,10.756-10.757,10.756c-5.938,0-10.755-4.815-10.755-10.756c0-5.632,4.331-10.251,9.845-10.714l5.051-6.479
			c-3.146-2.874-5.74-5.374-8.539-8.238l-4.482,5.18c-0.217,0.239-0.358,0.431-0.381,0.848c-0.304,5.933-5.36,10.495-11.291,10.192
			c-5.931-0.304-10.496-5.359-10.191-11.292c0.289-5.626,4.85-10.017,10.38-10.197l5.425-6.27
			c-8.821-10.451-14.623-19.63-16.44-25.009c-4.354-14.644-5.219-21.288-7.368-32.72c0,0-31.634-63.052-146.549-28.622
			c0,0,17.862,43.685,1.506,78.978C37.33,186.485,23.993,220.2,21.84,246.281l-0.303-0.015c0,0-5.941,54.873,20.527,54.873
			c37.912,0,35.639,1.107,331.339-0.253C373.402,300.886,398.031,231.724,330.891,231.724z"/>
	</g>
</g>
<defs>
	<filter id="Adobe_OpacityMaskFilter" filterUnits="userSpaceOnUse" x="184.71" y="663.915" width="0" height="0">
		<feFlood  style="flood-color:white;flood-opacity:1" result="back"/>
		<feBlend  in="SourceGraphic" in2="back" mode="normal"/>
	</filter>
</defs>
<mask maskUnits="userSpaceOnUse" x="184.71" y="663.915" width="0" height="0" id="SVGID_1_">
	<g filter="url(#Adobe_OpacityMaskFilter)">
		<defs>
			<filter id="Adobe_OpacityMaskFilter_1_" filterUnits="userSpaceOnUse" x="184.71" y="663.915" width="0" height="0">
				<feFlood  style="flood-color:white;flood-opacity:1" result="back"/>
				<feBlend  in="SourceGraphic" in2="back" mode="normal"/>
			</filter>
		</defs>
		<mask maskUnits="userSpaceOnUse" x="184.71" y="663.915" width="0" height="0" id="SVGID_1_">
			<g filter="url(#Adobe_OpacityMaskFilter_1_)">
			</g>
		</mask>
		<linearGradient id="SVGID_2_" gradientUnits="userSpaceOnUse" x1="184.71" y1="663.915" x2="184.71" y2="663.915">
			<stop  offset="0" style="stop-color:#000000"/>
			<stop  offset="0.327" style="stop-color:#020202"/>
			<stop  offset="0.4638" style="stop-color:#090909"/>
			<stop  offset="0.565" style="stop-color:#161616"/>
			<stop  offset="0.6488" style="stop-color:#272727"/>
			<stop  offset="0.7218" style="stop-color:#3E3E3E"/>
			<stop  offset="0.7872" style="stop-color:#5A5A5A"/>
			<stop  offset="0.847" style="stop-color:#7C7C7C"/>
			<stop  offset="0.9025" style="stop-color:#A4A4A4"/>
			<stop  offset="0.9523" style="stop-color:#CECECE"/>
			<stop  offset="1" style="stop-color:#FFFFFF"/>
		</linearGradient>
		<path mask="url(#SVGID_1_)" fill="url(#SVGID_2_)" d="M184.71,663.915"/>
	</g>
</mask>
<linearGradient id="SVGID_3_" gradientUnits="userSpaceOnUse" x1="184.71" y1="663.915" x2="184.71" y2="663.915">
	<stop  offset="0" style="stop-color:#000000"/>
	<stop  offset="0.5174" style="stop-color:#020202"/>
	<stop  offset="0.7337" style="stop-color:#090808"/>
	<stop  offset="0.8933" style="stop-color:#151314"/>
	<stop  offset="1" style="stop-color:#231F20"/>
</linearGradient>
<path fill="url(#SVGID_3_)" d="M184.71,663.915"/>
</svg>
